HIERARCHY
ROOT Hips
{
  OFFSET -31.5692 30.0904 122.763
  CHANNELS 6 Xposition Yposition Zposition Zrotation Xrotation Yrotation
  JOINT LeftUpLeg
  {
    OFFSET 8.64259 1.95398 -2.38835
    CHANNELS 3 Zrotation Xrotation Yrotation
    JOINT LeftLeg
    {
      OFFSET 43.7702 0 0
      CHANNELS 3 Zrotation Xrotation Yrotation
      JOINT LeftFoot
      {
        OFFSET 40.6238 0 0
        CHANNELS 3 Zrotation Xrotation Yrotation
        JOINT LeftToeBase
        {
          OFFSET 12.7242 0 0
          CHANNELS 3 Zrotation Xrotation Yrotation
          End Site
          {
            OFFSET 0 0 0
          }
        }
      }
    }
  }
  JOINT RightUpLeg
  {
    OFFSET -8.2249 1.95398 -2.59336
    CHANNELS 3 Zrotation Xrotation Yrotation
    JOINT RightLeg
    {
      OFFSET 43.5653 0 0
      CHANNELS 3 Zrotation Xrotation Yrotation
      JOINT RightFoot
      {
        OFFSET 40.6238 0 0
        CHANNELS 3 Zrotation Xrotation Yrotation
        JOINT RightToeBase
        {
          OFFSET 12.7242 0 0
          CHANNELS 3 Zrotation Xrotation Yrotation
          End Site
          {
            OFFSET 0 0 0
          }
        }
      }
    }
  }
  JOINT Spine
  {
    OFFSET 0.165834 0.87714 6.61349
    CHANNELS 3 Zrotation Xrotation Yrotation
    JOINT Spine1
    {
      OFFSET 7.38963 1.71661e-005 0
      CHANNELS 3 Zrotation Xrotation Yrotation
      JOINT Spine2
      {
        OFFSET 11.9445 1.14441e-005 0
        CHANNELS 3 Zrotation Xrotation Yrotation
        JOINT Spine3
        {
          OFFSET 14.7254 4.19617e-005 0
          CHANNELS 3 Zrotation Xrotation Yrotation
          JOINT Spine4
          {
            OFFSET 10.9679 0 0
            CHANNELS 3 Zrotation Xrotation Yrotation
            JOINT RightShoulder
            {
              OFFSET 2.46616 -1.6653 3.69651
              CHANNELS 3 Zrotation Xrotation Yrotation
              JOINT RightArm
              {
                OFFSET 13.0012 0 0
                CHANNELS 3 Zrotation Xrotation Yrotation
                JOINT RightForeArm
                {
                  OFFSET 28.7848 1.62311e-005 0
                  CHANNELS 3 Zrotation Xrotation Yrotation
                  JOINT RightHand
                  {
                    OFFSET 26.5688 1.62095e-005 0
                    CHANNELS 3 Zrotation Xrotation Yrotation
                    End Site
                    {
                      OFFSET 0 0 0
                    }
                  }
                }
              }
            }
            JOINT LeftShoulder
            {
              OFFSET 2.38034 -1.29275 -3.7523
              CHANNELS 3 Zrotation Xrotation Yrotation
              JOINT LeftArm
              {
                OFFSET 16.3182 6.07031e-005 0
                CHANNELS 3 Zrotation Xrotation Yrotation
                JOINT LeftForeArm
                {
                  OFFSET 27.0901 0 0
                  CHANNELS 3 Zrotation Xrotation Yrotation
                  JOINT LeftHand
                  {
                    OFFSET 24.5451 1.51738e-005 0
                    CHANNELS 3 Zrotation Xrotation Yrotation
                    End Site
                    {
                      OFFSET 0 0 0
                    }
                  }
                }
              }
            }
            JOINT Neck
            {
              OFFSET 5.0226 -0.0266342 0
              CHANNELS 3 Zrotation Xrotation Yrotation
              JOINT Head
              {
                OFFSET 6.69364 2.86102e-005 0
                CHANNELS 3 Zrotation Xrotation Yrotation
                End Site
                {
                  OFFSET 0 0 0
                }
              }
            }
          }
        }
      }
    }
  }
}
MOTION
Frames:	14
Frame Time:	0.0416667
-283.361 86.6516 264.263 95.3322 45.1469 100.082 -160.74 -31.3742 103.043 -6.68537 2.87816 0.872786 82.7409 16.3082 -0.971563 38.5454 0.984949 14.903 174.653 34.4443 107.101 -40.0144 -16.5502 6.48426 65.3546 -1.82334 -0.96964 17.704 3.93729 4.18376 -1.47596 7.73554 -92.2173 11.3184 -3.96988 -4.02004 -0.352201 -4.14285 -3.84155 -22.8616 -2.5799 -5.02554 -2.84895 -2.5799 -5.02554 92.7183 -33.2886 -100.382 37.1969 2.75644 14.2037 4.31914 0.96608 -0.431722 -12.5527 0.607393 -11.0339 -89.0956 -54.6496 80.969 -24.9167 7.27259 -17.0212 -3.87988 12.9872 -0.00574436 17.8963 0.0491091 -5.45125 -7.70777 6.58185 -2.62618 -6.14987 6.51888 11.3515 
-276.987 85.9391 257.673 96.9523 42.0567 100.467 -160.713 -27.7795 103.83 -22.8602 2.7596 1.31503 73.221 8.76324 -0.360102 46.4988 5.89386 15.9114 174.673 32.3578 110.477 -50.5773 -18.0743 5.18795 71.5223 -6.80552 -2.88798 22.4412 1.89581 4.08692 -1.04903 7.64991 -92.4967 11.4854 -3.25341 -4.64246 -0.189267 -3.45436 -4.49509 -22.6695 -1.71013 -5.40353 -2.65685 -1.71014 -5.40355 91.1978 -32.7942 -103.443 36.1868 1.42604 12.066 5.58693 -0.301346 -0.408049 -12.6328 0.608634 -11.4379 -89.3861 -57.3635 81.0522 -26.559 11.7632 -12.8054 -6.67431 7.31569 -0.00564336 12.6122 -0.0569202 -6.62011 -8.58147 6.82096 2.91253 -6.36061 6.41573 9.06012 
-271.607 85.7706 251.638 99.4222 41.8917 98.1006 -163.28 -15.7041 104.088 -51.8227 14.7989 3.17522 62.558 0.924007 0.230415 26.2886 -4.4385 8.07016 174.922 26.7876 109.678 -56.0131 -19.0472 4.22213 77.1399 -11.3994 -5.13394 23.0892 1.14565 5.91486 -0.851993 7.77748 -92.4522 11.2387 -2.83618 -4.60359 -0.436784 -3.03583 -4.47461 -22.9141 -1.32367 -5.24142 -2.90149 -1.32366 -5.24142 91.4742 -31.715 -103.258 34.7103 0.213639 7.57052 5.93442 -2.23515 -2.71929 -16.717 0.437033 -8.92885 -89.2145 -58.4723 81.4819 -26.363 10.361 -8.60087 -5.66536 5.9119 -0.00562735 9.57336 0.827218 0.147674 -6.5078 7.005 7.63068 -6.1986 6.20777 6.42664 
-267.399 86.8514 246.993 99.3187 43.7841 96.8957 -168.91 2.10014 102.169 -80.5853 23.5614 5.67893 61.2623 -0.215772 0.434347 14.7098 -9.30524 4.73283 175.283 21.6132 108.253 -55.5104 -18.4216 3.51677 79.941 -13.9109 -5.78851 23.1191 1.36362 5.00989 -0.407435 7.76695 -92.1773 11.2861 -1.82441 -4.15422 -0.389944 -2.00532 -4.07009 -22.8729 -0.493026 -4.50972 -2.8603 -0.493014 -4.50973 91.6264 -30.4019 -103.384 35.216 0.373959 3.3281 4.70765 -0.237876 -4.17504 -18.4752 0.622617 -9.35102 -87.9363 -55.8912 82.8227 -24.9736 6.20356 -5.61918 -3.90868 6.61991 -0.00563499 12.0255 0.486148 -2.37564 -3.07316 5.16635 7.84595 -5.93158 4.16822 4.41777 
-263.709 89.7247 242.347 99.4436 45.2509 93.0048 -173.703 18.2085 96.3417 -95.2769 12.0288 5.3188 64.2471 1.04591 2.46698 9.0845 -12.1329 3.79922 175.202 14.2885 103.451 -49.7444 -18.0569 2.55549 79.4851 -13.631 -4.718 24.9276 0.588462 5.07918 0.217367 7.84884 -91.5875 11.1613 -0.304877 -3.13028 -0.513335 -0.442281 -3.11387 -23.019 0.649521 -3.07734 -3.00637 0.649544 -3.07734 91.737 -27.9112 -104.018 36.2988 0.309844 0.0621983 3.90334 2.00564 -4.47041 -20.7534 0.63069 -8.52303 -87.572 -54.7679 83.1594 -20.764 3.58623 -7.7999 -2.88683 9.59207 -0.00567678 13.8368 0.645258 -2.00667 -3.50431 1.76618 6.79161 -4.62445 0.997837 1.78876 
-259.596 94.8973 237.222 103.194 45.5839 85.244 -174.648 26.8909 89.1691 -94.7275 0.69312 4.69299 68.9307 3.4958 3.90061 3.48862 -15.1809 3.31437 174.478 4.13943 97.382 -41.4635 -21.9056 0.474381 69.9178 -6.9666 -5.2791 29.5429 -1.86061 7.9028 0.841566 8.25165 -90.7895 10.3769 1.31507 -1.68486 -1.2945 1.23966 -1.74111 -23.83 1.76061 -1.21177 -3.81737 1.7606 -1.21179 90.7167 -28.9683 -105.715 34.3675 0.124199 -0.705536 4.32321 -2.33302 -5.96489 -24.5611 0.464765 -7.80801 -88.0093 -53.3156 82.2925 -18.4071 1.44085 -9.43975 -1.72244 9.53256 0.00631017 13.3952 0.37722 -3.64508 -8.43005 -1.49143 0.742014 -2.21381 -1.53842 1.5337 
-255.136 99.9459 232.156 105.226 44.7645 79.8631 -176.447 31.0433 84.0352 -85.6358 -0.127019 3.96595 71.8824 5.38918 3.92817 7.17821 -14.2636 5.40288 175.882 -0.980248 94.0493 -37.0135 -21.4859 -3.25259 59.4274 1.47743 -1.70296 23.9431 0.221552 8.54658 1.21004 8.53077 -90.1142 9.81793 2.3604 -0.413282 -1.85097 2.33992 -0.516832 -24.4033 2.37541 0.315633 -4.39067 2.37541 0.315629 90.6962 -27.8166 -106.204 35.4422 -1.40388 -2.32213 4.99493 -2.80843 -7.03728 -21.9539 1.10753 -11.6971 -88.1565 -50.4196 81.5634 -18.1569 1.2344 -8.26922 -2.11609 13.2136 0.0103293 11.1847 0.591993 -2.96322 -14.0953 -2.42809 -4.52921 -0.346277 -2.3553 0.0645407 
-250.478 103.137 226.379 104.138 40.4657 77.8603 -176.661 32.1585 81.2138 -73.6702 4.29264 2.4276 76.5943 9.1221 3.14595 7.05639 -13.0386 3.30483 176.622 -2.9579 91.7266 -38.0771 -26.5269 -6.63121 56.6304 3.37075 0.255576 20.2046 2.30032 6.08425 1.63265 8.58711 -89.6109 9.69572 3.43069 0.501785 -1.97077 3.44944 0.350122 -24.5364 3.12114 1.51057 -4.52378 3.12115 1.51058 90.4337 -26.8029 -107.14 36.7258 -2.41121 -3.89521 5.22953 -3.491 -7.70234 -19.6584 1.05309 -12.2924 -88.2748 -51.4606 81.5771 -15.1196 2.89913 -4.53247 -4.09358 14.1289 -0.00618547 12.9828 0.869441 -0.999357 -18.2384 -2.17224 -4.89141 1.24477 -2.36098 -1.63878 
-246.181 104.63 220.836 102.023 39.356 78.5839 -179.806 32.9123 80.1513 -59.6255 4.40968 2.6347 78.4469 10.5149 1.89947 11.2452 -10.6637 3.44394 174.614 -4.36396 90.6729 -30.457 -30.1499 -4.44112 56.029 3.16542 3.52493 27.0687 0.443009 1.62642 1.65824 8.47592 -89.4162 9.91056 3.5701 0.868666 -1.75567 3.60489 0.710495 -24.3207 3.14387 1.90235 -4.30802 3.14389 1.90235 90.0542 -27.3946 -107.685 37.054 -3.34084 -5.81252 5.75706 -5.00653 -7.51907 -21.3152 0.965191 -11.5247 -87.9454 -52.9056 82.3154 -15.1478 2.70168 -2.98623 -4.10113 13.237 -0.0118423 14.8018 0.967704 -0.529863 -18.3281 -2.14027 -4.6636 -0.0775122 -2.30116 -1.22927 
-241.555 104.061 215.393 100.316 39.1694 79.9094 177.938 32.1097 79.9287 -44.5447 1.24278 3.00817 77.2088 10.5181 2.74371 13.7942 -7.78038 0.740843 174.126 -4.71945 91.8464 -23.8986 -21.0784 -1.78765 59.9171 0.756163 2.0456 22.9734 2.51545 0.800618 1.57496 8.33904 -89.428 10.1853 3.39917 0.847379 -1.4814 3.43317 0.696788 -24.0434 2.98724 1.83054 -4.03078 2.98727 1.83054 89.7504 -27.4247 -108.297 38.5513 -3.78818 -6.39132 5.71804 -4.47372 -7.91967 -22.3924 0.740398 -9.88792 -86.7251 -53.2445 84.1435 -17.9551 3.62113 -0.430511 -4.24535 11.0622 -0.0195282 13.9975 0.763778 -1.41569 -18.1723 -2.21382 -2.4576 -0.859673 -2.35058 -2.53858 
-236.813 101.532 209.957 98.4857 37.8944 80.6559 178.038 30.806 79.9811 -30.0464 0.841084 1.58876 77.9513 11.8221 -0.576319 13.9792 -11.1686 7.31984 173.79 -3.50573 91.7601 -22.8119 -11.6193 -0.607821 61.7898 0.349389 0.908526 25.4256 0.329554 5.59211 1.64812 8.2366 -89.3673 10.388 3.57299 0.944449 -1.27821 3.61108 0.786089 -23.8424 3.12386 1.97546 -3.8298 3.12385 1.97546 89.5532 -27.1524 -108.818 40.5517 -4.41343 -6.54704 5.81812 -3.55957 -7.9842 -23.0717 0.932557 -10.5599 -85.5871 -53.4723 85.8267 -21.9834 4.92248 2.82975 -3.82648 4.24571 -0.0438744 15.6469 0.739867 -0.326247 -16.8804 -2.23961 -0.773989 -1.65781 -2.33716 -4.12304 
-232.449 97.1337 204.066 97.4836 34.2663 79.8311 178.698 32.0639 79.5684 -22.4254 6.64515 0.167107 73.7065 10.5348 2.72981 14.3679 -9.31761 4.27612 171.693 -4.75594 89.2763 -30.0195 -12.9644 -1.37362 71.6544 -7.37546 -4.36639 34.1217 -3.41361 6.50434 1.99989 8.2013 -89.2816 10.4554 4.31327 1.04659 -1.20867 4.35514 0.8554 -23.7874 3.79914 2.29607 -3.7748 3.79914 2.29607 89.1295 -26.1473 -110.144 42.1185 -5.11722 -6.19681 6.26091 -0.355991 -7.11017 -21.8623 0.97993 -10.5703 -85.0465 -57.6625 87.1003 -21.3416 4.01646 4.15712 -3.7211 3.28942 -0.00391032 16.2656 0.589858 -1.15183 -15.5496 -2.36472 3.28494 -1.891 -2.51089 -7.60285 
-228.086 92.8143 197.906 95.6904 29.6916 79.7173 178.555 34.7962 80.5176 -19.7533 11.9547 -0.0241392 71.9428 9.65694 3.35713 13.4593 -10.7478 5.96164 168.744 -6.95382 84.0408 -35.2885 -17.2191 -3.25085 84.1464 -16.242 -2.33507 34.8113 -2.74688 -0.279509 2.39945 8.18656 -89.1679 10.4794 5.16132 1.19586 -1.18163 5.20893 0.966948 -23.7802 4.56293 2.69449 -3.76753 4.56295 2.69448 89.0179 -25.0638 -110.886 43.1281 -6.09923 -8.63635 6.76686 1.35669 -4.43975 -22.2813 0.904694 -9.81309 -84.1591 -62.7696 88.8222 -19.054 1.20075 3.88264 -1.94147 5.90835 -0.0247342 14.95 0.770245 -0.23532 -10.448 -1.9211 7.82457 -4.6098 -2.21298 -10.7306 
-221.706 90.7352 191.364 92.2794 28.7841 83.0803 178.05 38.3796 83.1945 -23.7223 13.8871 0.695883 70.793 7.82803 0.230218 11.2201 -12.1345 6.00516 168.724 -13.1044 83.8235 -28.8618 -14.8221 -4.39887 85.0413 -16.1321 -0.474428 40.177 -5.29255 0.691351 2.55098 7.83996 -89.2003 11.1767 5.44894 1.0586 -0.483084 5.49023 0.817048 -23.092 4.8784 2.65075 -3.07933 4.8784 2.65075 89.1744 -24.5083 -110.819 44.9703 -7.085 -9.40123 7.11639 1.68932 -4.20267 -25.1686 -0.0343257 -5.06861 -82.7458 -64.032 90.7704 -17.3532 0.355551 0.483809 -1.16404 12.2491 0.00488768 14.2274 1.03181 -0.114285 -6.41918 -1.18066 8.49503 -8.00825 -1.49861 -10.0941 
